<svg width="26" height="40" viewBox="0 0 26 11" fill="none" xmlns="http://www.w3.org/2000/svg">
<path d="M24.9815 9.44651C24.4008 6.74745 22.8738 4.34512 20.6764 2.67372C18.479 1.00233 15.7562 0.172131 13.0001 0.333183C10.244 0.172131 7.5212 1.00233 5.32381 2.67372C3.12642 4.34512 1.59942 6.74745 1.01879 9.44651L0.758789 10.9998H25.2415L24.9815 9.44651ZM4.13079 8.33318C4.99079 6.29985 7.26679 2.99985 13.0001 2.99985C18.6815 2.99985 20.9775 6.29718 21.8548 8.33318H4.13079Z" fill="black"/>
<path transform="translate(0 50)" d="M7.00016 14.0003C8.3187 14.0003 9.60764 13.6093 10.704 12.8768C11.8003 12.1442 12.6548 11.1031 13.1594 9.88488C13.6639 8.66671 13.796 7.32627 13.5387 6.03306C13.2815 4.73985 12.6466 3.55197 11.7142 2.61962C10.7819 1.68727 9.59397 1.05233 8.30076 0.795093C7.00756 0.537859 5.66711 0.669881 4.44894 1.17447C3.23077 1.67905 2.18957 2.53353 1.45703 3.62986C0.724489 4.72619 0.333496 6.01512 0.333496 7.33366C0.335613 9.10112 1.03867 10.7956 2.28846 12.0454C3.53824 13.2952 5.2327 13.9982 7.00016 14.0003ZM7.00016 3.33366C7.79129 3.33366 8.56465 3.56826 9.22244 4.00778C9.88024 4.44731 10.3929 5.07202 10.6957 5.80293C10.9984 6.53383 11.0776 7.3381 10.9233 8.11402C10.769 8.88995 10.388 9.60268 9.82859 10.1621C9.26918 10.7215 8.55645 11.1025 7.78052 11.2568C7.0046 11.4111 6.20033 11.3319 5.46943 11.0292C4.73852 10.7264 4.11381 10.2137 3.67428 9.55594C3.23476 8.89815 3.00016 8.12479 3.00016 7.33366C3.00016 6.2728 3.42159 5.25538 4.17173 4.50523C4.92188 3.75509 5.9393 3.33366 7.00016 3.33366Z" fill="black"/>
</svg>
